<svg width="26" height="26" viewBox="0 0 26 26" fill="none" xmlns="http://www.w3.org/2000/svg">
<path d="M13 0.5C10.5756 0.504606 8.20485 1.21414 6.17654 2.54217C4.14822 3.87021 2.54987 5.75943 1.57618 7.97971C0.602483 10.2 0.29547 12.6555 0.692533 15.0472C1.0896 17.4389 2.1736 19.6635 3.8125 21.45C4.98303 22.7188 6.40368 23.7314 7.98492 24.424C9.56617 25.1166 11.2737 25.4742 13 25.4742C14.7263 25.4742 16.4338 25.1166 18.0151 24.424C19.5963 23.7314 21.017 22.7188 22.1875 21.45C23.8264 19.6635 24.9104 17.4389 25.3075 15.0472C25.7045 12.6555 25.3975 10.2 24.4238 7.97971C23.4501 5.75943 21.8518 3.87021 19.8235 2.54217C17.7951 1.21414 15.4244 0.504606 13 0.5ZM13 23C10.4106 22.9961 7.92364 21.9878 6.0625 20.1875C6.62755 18.8119 7.58879 17.6354 8.82407 16.8074C10.0593 15.9793 11.5129 15.5373 13 15.5373C14.4871 15.5373 15.9407 15.9793 17.1759 16.8074C18.4112 17.6354 19.3724 18.8119 19.9375 20.1875C18.0764 21.9878 15.5894 22.9961 13 23ZM10.5 10.5C10.5 10.0055 10.6466 9.5222 10.9213 9.11107C11.196 8.69995 11.5865 8.37952 12.0433 8.1903C12.5001 8.00108 13.0028 7.95157 13.4877 8.04804C13.9727 8.1445 14.4181 8.3826 14.7678 8.73223C15.1174 9.08186 15.3555 9.52732 15.452 10.0123C15.5484 10.4972 15.4989 10.9999 15.3097 11.4567C15.1205 11.9135 14.8 12.304 14.3889 12.5787C13.9778 12.8534 13.4945 13 13 13C12.337 13 11.7011 12.7366 11.2322 12.2678C10.7634 11.7989 10.5 11.163 10.5 10.5ZM21.6375 18C20.5207 16.0897 18.8018 14.6038 16.75 13.775C17.3865 13.0533 17.8012 12.1633 17.9443 11.2118C18.0875 10.2603 17.9531 9.28764 17.5572 8.41062C17.1613 7.5336 16.5207 6.78945 15.7124 6.26746C14.904 5.74547 13.9622 5.46781 13 5.46781C12.0378 5.46781 11.096 5.74547 10.2876 6.26746C9.47927 6.78945 8.83871 7.5336 8.44281 8.41062C8.04691 9.28764 7.91248 10.2603 8.05566 11.2118C8.19884 12.1633 8.61354 13.0533 9.25 13.775C7.19825 14.6038 5.47934 16.0897 4.3625 18C3.47243 16.4839 3.00215 14.7581 3 13C3 10.3478 4.05357 7.8043 5.92893 5.92893C7.8043 4.05357 10.3478 3 13 3C15.6522 3 18.1957 4.05357 20.0711 5.92893C21.9464 7.8043 23 10.3478 23 13C22.9979 14.7581 22.5276 16.4839 21.6375 18Z" fill="#9C4DF4"/>
</svg>
