<svg width="30" height="24" viewBox="0 0 30 24" fill="none" xmlns="http://www.w3.org/2000/svg">
<path d="M15.009 21.3518C15.009 21.8803 14.7037 22.3604 14.2258 22.5845C14.041 22.6719 13.8431 22.7141 13.6464 22.7141C13.3349 22.7141 13.0263 22.6071 12.777 22.4004L5.32911 16.2287H1.36235C0.610073 16.2293 0 15.619 0 14.8667V9.4389C0 8.6863 0.610073 8.07623 1.36235 8.07623H5.32943L12.7774 1.90455C13.1843 1.56727 13.7486 1.49537 14.2261 1.72108C14.7037 1.94518 15.0094 2.42563 15.0094 2.9538L15.009 21.3518ZM20.2446 19.223C20.2114 19.2252 20.1795 19.2265 20.1466 19.2265C19.7868 19.2265 19.4398 19.0843 19.1835 18.8276L19.0013 18.6448C18.5234 18.1679 18.4673 17.4124 18.8697 16.8701C19.8899 15.4945 20.4284 13.8639 20.4284 12.1533C20.4284 10.3134 19.8171 8.58763 18.6601 7.16241C18.2197 6.62069 18.2603 5.83392 18.7539 5.34057L18.9358 5.15839C19.208 4.88624 19.5726 4.73791 19.9673 4.76145C20.3517 4.7808 20.7106 4.96169 20.9543 5.25964C22.5592 7.22335 23.4069 9.60754 23.4069 12.1536C23.4069 14.5249 22.6572 16.782 21.2384 18.68C21.0014 18.9963 20.639 19.1949 20.2446 19.223ZM25.8772 23.4332C25.6308 23.7243 25.2745 23.8991 24.8931 23.9152C24.8743 23.9159 24.8553 23.9165 24.836 23.9165C24.4752 23.9165 24.1289 23.774 23.8725 23.5177L23.6935 23.3387C23.1934 22.8389 23.1596 22.0396 23.6142 21.4985C25.8114 18.8854 27.0219 15.5667 27.0219 12.1533C27.0219 8.60279 25.7259 5.18483 23.3737 2.52914C22.8968 1.99 22.921 1.17389 23.4285 0.664416L23.6071 0.485457C23.8722 0.219114 24.2166 0.0724001 24.6116 0.0849756C24.9866 0.0956164 25.3413 0.261355 25.5905 0.541886C28.4339 3.74316 30 7.86728 30 12.1533C30.0006 16.2771 28.5364 20.2832 25.8772 23.4332Z" fill="#FF6652"/>
</svg>
