<svg width="20" height="26" viewBox="0 0 20 26" fill="none" xmlns="http://www.w3.org/2000/svg">
<path d="M18.75 6.75H15V5.5C15 4.17392 14.4732 2.90215 13.5355 1.96447C12.5979 1.02678 11.3261 0.5 10 0.5C8.67392 0.5 7.40215 1.02678 6.46447 1.96447C5.52678 2.90215 5 4.17392 5 5.5V6.75H1.25C0.918479 6.75 0.600537 6.8817 0.366117 7.11612C0.131696 7.35054 0 7.66848 0 8V21.75C0 22.7446 0.395088 23.6984 1.09835 24.4017C1.80161 25.1049 2.75544 25.5 3.75 25.5H16.25C17.2446 25.5 18.1984 25.1049 18.9017 24.4017C19.6049 23.6984 20 22.7446 20 21.75V8C20 7.66848 19.8683 7.35054 19.6339 7.11612C19.3995 6.8817 19.0815 6.75 18.75 6.75ZM7.5 5.5C7.5 4.83696 7.76339 4.20107 8.23223 3.73223C8.70107 3.26339 9.33696 3 10 3C10.663 3 11.2989 3.26339 11.7678 3.73223C12.2366 4.20107 12.5 4.83696 12.5 5.5V6.75H7.5V5.5ZM17.5 21.75C17.5 22.0815 17.3683 22.3995 17.1339 22.6339C16.8995 22.8683 16.5815 23 16.25 23H3.75C3.41848 23 3.10054 22.8683 2.86612 22.6339C2.6317 22.3995 2.5 22.0815 2.5 21.75V9.25H5V10.5C5 10.8315 5.1317 11.1495 5.36612 11.3839C5.60054 11.6183 5.91848 11.75 6.25 11.75C6.58152 11.75 6.89946 11.6183 7.13388 11.3839C7.3683 11.1495 7.5 10.8315 7.5 10.5V9.25H12.5V10.5C12.5 10.8315 12.6317 11.1495 12.8661 11.3839C13.1005 11.6183 13.4185 11.75 13.75 11.75C14.0815 11.75 14.3995 11.6183 14.6339 11.3839C14.8683 11.1495 15 10.8315 15 10.5V9.25H17.5V21.75Z" fill="#FF6652"/>
</svg>
