<svg width="50" height="50" viewBox="0 0 50 50" fill="none" xmlns="http://www.w3.org/2000/svg">
<path d="M25 50C38.8071 50 50 38.8071 50 25C50 11.1929 38.8071 0 25 0C11.1929 0 0 11.1929 0 25C0 38.8071 11.1929 50 25 50Z" fill="#FFB54A"/>
<path d="M48.9232 32.2754L31.2669 14.6191C31.2669 14.6191 21.7556 14.0094 20.6557 19.7606C19.5559 25.512 18.9442 36.6062 18.9442 36.6062L31.4864 49.1484C39.815 46.9168 46.4275 40.4925 48.9232 32.2754Z" fill="#F9880D"/>
<path d="M31.5405 24.549C32.5263 23.206 33.1103 21.5506 33.1103 19.7608C33.1103 15.2888 29.4721 11.6505 25.0001 11.6505C20.5282 11.6505 16.89 15.2888 16.89 19.7608C16.89 21.5506 17.474 23.2061 18.4598 24.549C16.9421 26.0359 15.9981 28.1061 15.9981 30.3936C15.9981 34.8234 19.6019 38.4273 24.0318 38.4273H25.9687C30.3985 38.4273 34.0024 34.8235 34.0024 30.3936C34.0023 28.1061 33.0581 26.0359 31.5405 24.549ZM25.0001 17.3146C26.3489 17.3146 27.4462 18.4119 27.4462 19.7608C27.4462 21.1095 26.349 22.2069 25.0001 22.2069C23.6513 22.2069 22.554 21.1096 22.554 19.7608C22.554 18.4119 23.6514 17.3146 25.0001 17.3146ZM25.9686 32.7631H24.0317C22.725 32.7631 21.6621 31.7001 21.6621 30.3935C21.6621 29.0025 22.7937 27.8708 24.1846 27.8708H25.8156C27.2065 27.8708 28.3381 29.0025 28.3381 30.3935C28.3382 31.7002 27.2752 32.7631 25.9686 32.7631Z" fill="#F8FFFB"/>
<path d="M31.54 24.549C32.5264 23.2062 33.1104 21.5509 33.1104 19.7609C33.1104 15.2892 29.4717 11.6505 25 11.6505V17.3146C26.3486 17.3146 27.4463 18.4122 27.4463 19.7609C27.4463 21.1095 26.3486 22.2072 25 22.2072V27.8712H25.8154C27.2061 27.8712 28.3379 29.0021 28.3379 30.3937C28.3379 31.7003 27.2754 32.7628 25.9688 32.7628H25V38.4269H25.9688C30.3984 38.4269 34.002 34.8234 34.002 30.3937C34.002 28.1056 33.0576 26.0363 31.54 24.549Z" fill="#D8D8D8"/>
</svg>
