<svg width="50" height="50" viewBox="0 0 50 50" fill="none" xmlns="http://www.w3.org/2000/svg">
<path d="M25 50C38.8071 50 50 38.8071 50 25C50 11.1929 38.8071 0 25 0C11.1929 0 0 11.1929 0 25C0 38.8071 11.1929 50 25 50Z" fill="#07E5CA"/>
<path d="M30.9621 49.2828C41.2279 46.7708 49.0051 37.9205 49.9103 27.1146L34.4462 11.6505L19.4929 13.2489L15.4855 26.2521L21.6318 32.2356L17.8488 36.2101L30.9621 49.2828Z" fill="#00B59B"/>
<path d="M22.8602 17.3146L22.326 20.4454L24.5809 20.339C27.1493 20.2169 29.6874 20.9855 31.5448 22.7638C35.1268 26.1935 35.4315 31.8527 32.2382 35.6466C30.3807 37.8536 27.6591 39.0909 24.8358 39.0909C24.2147 39.0909 23.5887 39.0314 22.9657 38.9083L22.7675 38.8693C20.8885 38.4991 19.1874 37.5792 17.8485 36.2101C16.5389 34.8702 15.6678 33.1945 15.3231 31.3556L21.0497 30.8937C21.494 32.1173 22.5604 33.0558 23.8632 33.3126L24.0614 33.3517C25.4921 33.6339 26.9647 33.1154 27.9042 31.9991C29.1796 30.4845 29.0585 28.2247 27.6278 26.8546C26.8856 26.1437 25.8719 25.7657 24.8466 25.8126L15.4852 26.2521L18.1298 11.6505H34.446V17.3146H22.8602Z" fill="#F8FFFB"/>
<path d="M31.5449 22.7638C35.127 26.1935 35.4316 31.8527 32.2383 35.6466C30.417 37.8107 27.7646 39.0431 25 39.089V33.424C26.1104 33.3791 27.1699 32.8713 27.9043 31.9992C29.1797 30.4845 29.0586 28.2248 27.6279 26.8546C26.9229 26.1789 25.9727 25.8039 25 25.8087V20.3273C27.4238 20.3039 29.7881 21.0822 31.5449 22.7638Z" fill="#D8D8D8"/>
<path d="M25 11.6505H34.4463V17.3146H25V11.6505Z" fill="#D8D8D8"/>
</svg>
