<svg width="50" height="50" viewBox="0 0 50 50" fill="none" xmlns="http://www.w3.org/2000/svg">
<path d="M25 50C38.8071 50 50 38.8071 50 25C50 11.1929 38.8071 0 25 0C11.1929 0 0 11.1929 0 25C0 38.8071 11.1929 50 25 50Z" fill="#424242"/>
<path d="M49.6913 28.9325L32.4092 11.6505L14.9854 31.6437L32.2675 48.9258C41.3124 46.1819 48.1873 38.4508 49.6913 28.9325Z" fill="#232323"/>
<path d="M32.4092 25.9796V11.6505H25.0538L14.9854 26.0948V31.6437H26.7452V38.3497H32.4092V31.6437H36.0294V25.9796H32.4092ZM26.7452 25.9796H21.9698L26.7452 19.13V25.9796Z" fill="#F8FFFB"/>
<path d="M32.4092 25.9796V11.6505H25.0537L25 11.7277V21.6329L26.7451 19.13V25.9796H25V31.6437H26.7451V38.3497H32.4092V31.6437H36.0293V25.9796H32.4092Z" fill="#D8D8D8"/>
</svg>
