<svg width="29" height="30" viewBox="0 0 29 30" fill="none" xmlns="http://www.w3.org/2000/svg">
<path d="M15.6725 8.23601C14.9284 8.9785 13.7225 8.9785 12.9784 8.23601C12.2345 7.49352 12.2345 6.2896 12.9784 5.5471C13.7225 4.80461 14.9284 4.80461 15.6725 5.5471C16.4164 6.2896 16.4164 7.49352 15.6725 8.23601Z" fill="#9C4DF4"/>
<path d="M18.275 11.1168C18.0429 11.1168 17.8108 11.0283 17.6341 10.8509C17.2807 10.497 17.2814 9.92369 17.6352 9.57052C18.3523 8.85481 18.7471 7.90335 18.7471 6.89146C18.7471 5.87957 18.3523 4.92811 17.6352 4.2124C17.2814 3.85901 17.2807 3.28589 17.6341 2.93181C17.9873 2.57795 18.5606 2.57727 18.9145 2.93066C19.9744 3.98855 20.5581 5.39503 20.5581 6.89146C20.5581 8.38766 19.9744 9.79437 18.9145 10.8523C18.7378 11.0287 18.5064 11.1168 18.275 11.1168Z" fill="#9C4DF4"/>
<path d="M20.323 13.7827C20.0909 13.7827 19.8588 13.6941 19.6821 13.5169C19.3287 13.1628 19.3294 12.5897 19.6833 12.2363C21.1138 10.8086 21.9018 8.91044 21.9018 6.89148C21.9018 4.87251 21.1138 2.97439 19.6833 1.54663C19.3294 1.19323 19.3287 0.620114 19.6821 0.266034C20.0355 -0.0878177 20.6086 -0.0885043 20.9625 0.264889C22.7359 2.03483 23.7127 4.3882 23.7125 6.89148C23.7125 9.39476 22.7359 11.7483 20.9625 13.5183C20.7858 13.6945 20.5544 13.7827 20.323 13.7827Z" fill="#9C4DF4"/>
<path d="M10.3714 11.1164C10.14 11.1164 9.9086 11.0283 9.73168 10.8519C8.67172 9.79397 8.08807 8.38726 8.08807 6.89106C8.08807 5.39463 8.67172 3.98815 9.73168 2.93026C10.0855 2.57686 10.6589 2.57732 11.012 2.9314C11.3654 3.28525 11.3648 3.8586 11.0109 4.212C10.2938 4.92771 9.89899 5.87917 9.89899 6.89106C9.89899 7.90295 10.2938 8.85441 11.0109 9.57012C11.3648 9.92329 11.3654 10.4966 11.012 10.8505C10.8353 11.0276 10.6033 11.1164 10.3714 11.1164Z" fill="#9C4DF4"/>
<path d="M8.3234 13.7835C8.09177 13.7835 7.86037 13.6954 7.68367 13.5189C5.9103 11.749 4.93365 9.3956 4.93365 6.89232C4.93365 4.38881 5.9103 2.03545 7.68367 0.265507C8.03753 -0.0876575 8.61088 -0.0871997 8.96404 0.26688C9.31744 0.620732 9.31675 1.19385 8.9629 1.54725C7.53238 2.97501 6.74434 4.87313 6.74434 6.89209C6.74434 8.91106 7.53238 10.8094 8.9629 12.2372C9.31675 12.5906 9.31744 13.1637 8.96404 13.5178C8.78734 13.6949 8.55526 13.7835 8.3234 13.7835Z" fill="#9C4DF4"/>
<path d="M26.2567 15.3479H2.38961C1.2198 15.3479 0.271545 16.2962 0.271545 17.4657V27.8819C0.271545 29.0517 1.2198 30 2.38961 30H26.2564C27.4263 30 28.3745 29.0517 28.3745 27.8819V17.4657C28.3745 16.2962 27.4263 15.3479 26.2567 15.3479ZM7.23663 27.2825H3.90069C3.40081 27.2825 2.99546 26.8771 2.99546 26.377V18.9709C2.99546 18.471 3.40081 18.0654 3.90069 18.0654C4.40079 18.0654 4.80614 18.4708 4.80614 18.9709V25.4715H7.23663C7.73674 25.4715 8.14209 25.8769 8.14209 26.377C8.14209 26.8771 7.73674 27.2825 7.23663 27.2825ZM10.9473 26.377C10.9473 26.8771 10.5419 27.2825 10.0418 27.2825C9.5417 27.2825 9.13635 26.8771 9.13635 26.377V18.9709C9.13635 18.471 9.5417 18.0654 10.0418 18.0654C10.5419 18.0654 10.9473 18.4708 10.9473 18.9709V26.377ZM18.5653 19.2327L16.3294 26.6386C16.3292 26.6393 16.3289 26.64 16.3287 26.6407C16.0859 27.4695 14.8479 27.4491 14.5965 26.6407C14.5963 26.64 14.5961 26.6393 14.5959 26.6386L12.3599 19.2327C12.2155 18.7539 12.4863 18.2487 12.9651 18.1041C13.4434 17.9597 13.949 18.2304 14.0935 18.7093L15.4626 23.2441L16.8318 18.7093C16.9764 18.2304 17.4816 17.9594 17.9604 18.1041C18.439 18.2487 18.71 18.7539 18.5653 19.2327ZM24.1356 21.3022C24.6357 21.3022 25.0411 21.7076 25.0411 22.2077C25.0411 22.7076 24.6357 23.1132 24.1356 23.1132H21.5662V25.4715H24.6234C25.1235 25.4715 25.5288 25.8769 25.5288 26.377C25.5288 26.8771 25.1235 27.2825 24.6234 27.2825H20.6608C20.1606 27.2825 19.7553 26.8771 19.7553 26.377V18.9709C19.7553 18.471 20.1606 18.0654 20.6608 18.0654H24.7454C25.2452 18.0654 25.6508 18.4708 25.6508 18.9709C25.6508 19.471 25.2452 19.8763 24.7454 19.8763H21.566V21.3022H24.1356Z" fill="#9C4DF4"/>
</svg>
