<svg width="50" height="50" viewBox="0 0 50 50" fill="none" xmlns="http://www.w3.org/2000/svg">
<path d="M25 50C38.8071 50 50 38.8071 50 25C50 11.1929 38.8071 0 25 0C11.1929 0 0 11.1929 0 25C0 38.8071 11.1929 50 25 50Z" fill="#424242"/>
<path d="M27.6943 49.8552C38.4399 48.7035 47.1469 40.7442 49.4189 30.3746L33.299 14.2547C33.299 14.2547 20.111 13.8903 15.3473 21.7252L22.3671 28.7628L16.116 38.3496L27.6943 49.8552Z" fill="#232323"/>
<path d="M35.3982 38.3496H16.116V31.8409L28.4996 22.4656C30.0699 21.2767 29.6915 19.619 29.5382 19.1392C29.3904 18.6771 28.7615 17.1646 26.8716 17.1094C26.8295 17.1083 26.7554 17.1076 26.7257 17.1074H24.536C21.3105 17.1074 21.0599 20.6418 21.0599 21.7251H15.3474C15.3474 15.6427 19.1259 11.3948 24.536 11.3948L26.758 11.3949C26.758 11.3949 26.9447 11.3965 27.0377 11.3992C30.7316 11.5071 33.8487 13.8625 34.9796 17.3997C36.1249 20.9825 34.9348 24.7586 31.9478 27.0201L24.5287 32.637H35.3983V38.3496H35.3982Z" fill="#F8FFFB"/>
<path d="M31.9476 27.0199L25.3781 31.9939V24.8285L28.4993 22.4657C30.0694 21.2769 29.6911 19.6192 29.5384 19.1396C29.3907 18.6767 28.7613 17.1648 26.8712 17.1097C26.8288 17.1087 26.755 17.1077 26.7254 17.1077H25.3781V11.3951H26.7579C26.7579 11.3951 26.9441 11.3971 27.0376 11.399C30.7311 11.5073 33.8484 13.8623 34.9791 17.4002C36.1246 20.9823 34.9349 24.7586 31.9476 27.0199Z" fill="#D8D8D8"/>
<path d="M25.379 32.637H35.3988V38.3496H25.379V32.637Z" fill="#D8D8D8"/>
</svg>
