<svg width="26" height="16" viewBox="0 0 26 16" fill="none" xmlns="http://www.w3.org/2000/svg">
<path d="M1.75 3H24.25C24.5815 3 24.8995 2.8683 25.1339 2.63388C25.3683 2.39946 25.5 2.08152 25.5 1.75C25.5 1.41848 25.3683 1.10054 25.1339 0.866117C24.8995 0.631696 24.5815 0.5 24.25 0.5H1.75C1.41848 0.5 1.10054 0.631696 0.866116 0.866117C0.631696 1.10054 0.5 1.41848 0.5 1.75C0.5 2.08152 0.631696 2.39946 0.866116 2.63388C1.10054 2.8683 1.41848 3 1.75 3ZM24.25 13H1.75C1.41848 13 1.10054 13.1317 0.866116 13.3661C0.631696 13.6005 0.5 13.9185 0.5 14.25C0.5 14.5815 0.631696 14.8995 0.866116 15.1339C1.10054 15.3683 1.41848 15.5 1.75 15.5H24.25C24.5815 15.5 24.8995 15.3683 25.1339 15.1339C25.3683 14.8995 25.5 14.5815 25.5 14.25C25.5 13.9185 25.3683 13.6005 25.1339 13.3661C24.8995 13.1317 24.5815 13 24.25 13ZM24.25 6.75H1.75C1.41848 6.75 1.10054 6.8817 0.866116 7.11612C0.631696 7.35054 0.5 7.66848 0.5 8C0.5 8.33152 0.631696 8.64946 0.866116 8.88388C1.10054 9.1183 1.41848 9.25 1.75 9.25H24.25C24.5815 9.25 24.8995 9.1183 25.1339 8.88388C25.3683 8.64946 25.5 8.33152 25.5 8C25.5 7.66848 25.3683 7.35054 25.1339 7.11612C24.8995 6.8817 24.5815 6.75 24.25 6.75Z" fill="#0A033C"/>
</svg>
