<svg width="31" height="30" viewBox="0 0 31 30" fill="none" xmlns="http://www.w3.org/2000/svg">
<path d="M15.667 0C7.38271 0 0.666992 6.71572 0.666992 15C0.666992 23.2842 7.38271 29.9999 15.667 29.9999C23.9512 29.9999 30.6669 23.2842 30.6669 15C30.6581 6.71942 23.9476 0.00885184 15.667 0ZM21.984 15.4779C21.8802 15.6862 21.7114 15.8551 21.503 15.9589V15.9643L12.9316 20.25C12.4023 20.5145 11.7588 20.2998 11.4942 19.7705C11.419 19.62 11.3803 19.4539 11.3812 19.2857V10.7143C11.381 10.1225 11.8604 9.64266 12.4522 9.64235C12.6186 9.64228 12.7828 9.68096 12.9316 9.75535L21.503 14.0411C22.0326 14.305 22.248 14.9483 21.984 15.4779Z" fill="#00C968"/>
</svg>
